<svg version="1.1" id="Layer_1" xmlns="http://www.w3.org/2000/svg" xmlns:xlink="http://www.w3.org/1999/xlink" x="0px" y="0px"
	 width="100%" viewBox="0 0 496 496" enable-background="new 0 0 496 496" xml:space="preserve">
<path fill="currentColor" opacity="1.000000" stroke="none" 
	d="
M304.991333,287.336548 
	C296.118561,287.529907 288.509644,284.910828 281.209625,280.979065 
	C276.721436,278.561737 279.176117,275.957916 280.595123,273.157166 
	C282.060577,270.264740 283.506470,269.314453 286.780334,271.244171 
	C293.605133,275.266968 300.861237,278.143066 309.086090,275.926453 
	C314.664886,274.422943 318.844177,271.413239 319.536377,265.274292 
	C320.188507,259.490540 316.710022,256.049408 312.126312,253.340118 
	C305.508759,249.428741 297.848602,247.753723 291.374664,243.538712 
	C281.593292,237.170242 278.707214,225.026306 284.782837,215.119263 
	C288.748444,208.652863 295.006744,205.634720 302.215637,204.793762 
	C310.811218,203.791061 319.128357,205.299957 327.014862,208.964859 
	C329.467499,210.104630 331.688080,211.327148 329.529663,214.522278 
	C327.886841,216.954224 327.884247,221.591187 322.676819,218.979843 
	C317.420807,216.344131 311.790558,214.912628 305.790161,215.350967 
	C300.331268,215.749786 295.593109,218.887222 294.524292,222.987640 
	C293.279846,227.761856 295.099731,231.643921 300.894073,234.635544 
	C306.946808,237.760620 313.412231,240.081772 319.492981,243.158112 
	C333.030884,250.007111 336.371033,267.969086 326.186615,279.217560 
	C320.708893,285.267578 313.498169,287.505066 304.991333,287.336548 
z"/>
<path fill="currentColor" opacity="1.000000" stroke="none" 
	d="
M210.453003,271.699219 
	C215.481857,271.208862 219.258255,268.632935 223.171097,266.760712 
	C223.632874,267.031830 224.025162,267.125854 224.173248,267.368774 
	C229.664413,276.375916 229.116531,277.889099 219.206696,281.180847 
	C196.138931,288.843201 172.605103,276.818329 167.228943,254.518799 
	C161.814957,232.062271 173.407608,208.504608 197.220642,204.231583 
	C205.785553,202.694687 214.118469,203.721573 222.133865,207.110306 
	C227.634903,209.436035 227.861145,210.055527 225.352737,215.636169 
	C224.685699,217.120163 224.368332,218.846512 222.760208,219.915405 
	C220.643143,220.185501 219.155167,218.587433 217.414658,217.771683 
	C198.765259,209.031036 178.683853,221.592361 178.152451,242.221375 
	C177.824905,254.935791 182.533401,264.522797 194.319427,270.091736 
	C199.347717,272.467621 204.695999,272.010986 210.453003,271.699219 
z"/>
<path fill="currentColor" opacity="1.000000" stroke="none" 
	d="
M200.599670,424.910919 
	C197.312683,424.963715 197.402634,422.957886 197.434708,420.826996 
	C197.506210,416.078583 197.457047,411.328339 196.542847,406.213745 
	C193.779007,410.067200 191.033035,413.933655 188.241653,417.767029 
	C187.263901,419.109711 186.237289,420.669525 184.218552,419.872559 
	C182.473312,419.183533 182.672272,417.472412 182.671921,415.997833 
	C182.670486,410.007660 182.683517,404.017059 182.763168,398.027588 
	C182.781952,396.615540 182.445786,394.929901 185.173172,393.983551 
	C187.784500,399.667206 185.253174,405.897766 186.880951,412.017883 
	C190.541931,409.454803 191.905426,405.352051 194.682755,402.468994 
	C196.098740,400.999054 196.792816,398.114288 199.549469,399.124237 
	C202.215591,400.100983 201.198212,402.824524 201.277527,404.844391 
	C201.427048,408.652222 201.320679,412.470123 201.320679,416.968201 
	C206.873047,413.294739 207.934555,405.474548 214.859711,404.247070 
	C211.058792,411.789215 206.478561,418.611755 200.599670,424.910919 
z"/>
<path fill="currentColor" opacity="1.000000" stroke="none" 
	d="
M249.716888,172.492493 
	C250.302399,170.573868 251.105453,169.274216 252.064362,171.621262 
	C252.596893,172.924698 252.345932,174.572830 252.346100,176.065613 
	C252.351242,223.863968 252.351700,271.662323 252.306625,319.460663 
	C252.305023,321.159088 252.947189,323.112885 250.312485,324.501556 
	C249.553757,307.799164 249.657822,291.079559 249.642120,274.364349 
	C249.626312,257.543304 249.626984,240.722244 249.632690,223.901199 
	C249.638458,206.913727 249.659256,189.926254 249.716888,172.492493 
z"/>
<path fill="currentColor" opacity="1.000000" stroke="none" 
	d="
M91.091759,343.186096 
	C85.546249,338.056732 84.149155,332.709503 86.683800,327.384369 
	C88.912971,322.701019 94.327560,319.396790 99.162498,319.769287 
	C104.932594,320.213837 109.486320,324.293060 110.835159,330.404114 
	C111.920227,335.320160 109.957756,339.324341 106.282600,342.302521 
	C101.717300,346.002106 96.623497,346.378357 91.091759,343.186096 
M92.645432,326.152924 
	C89.070847,329.530457 87.888016,333.411713 90.945969,337.614471 
	C93.354561,340.924805 96.564514,342.665588 100.857635,340.822479 
	C106.015915,338.607880 108.561829,333.697174 106.641548,329.425323 
	C104.098038,323.767029 99.443733,322.473877 92.645432,326.152924 
z"/>
<path fill="currentColor" opacity="1.000000" stroke="none" 
	d="
M96.006210,154.514877 
	C93.556480,156.172791 93.163040,157.695572 95.735718,159.166153 
	C96.889740,159.825806 98.081100,160.424591 99.204620,161.131882 
	C100.242401,161.785156 101.118675,162.627228 100.282768,163.975739 
	C99.641594,165.010132 98.621696,165.047913 97.669556,164.502151 
	C91.761200,161.115585 85.856560,157.721252 80.009804,154.230484 
	C79.422073,153.879593 78.968987,152.891846 78.899284,152.157364 
	C78.628876,149.307556 84.779602,141.535217 87.735641,140.823044 
	C92.375450,139.705185 95.141769,141.413910 97.125633,147.204254 
	C97.820930,149.233597 98.863251,149.704880 100.726227,149.735321 
	C103.014503,149.772736 105.353180,149.210800 108.203506,150.303375 
	C105.275208,155.367050 99.797043,152.203400 96.006210,154.514877 
M88.876144,144.552856 
	C86.050682,145.961716 84.484863,148.322617 83.620491,151.332550 
	C85.324532,153.320770 87.380043,154.477081 89.777458,155.002136 
	C94.838120,148.699387 94.781853,146.795486 88.876144,144.552856 
z"/>
<path fill="currentColor" opacity="1.000000" stroke="none" 
	d="
M294.123901,74.195503 
	C289.057892,78.049507 284.008514,78.301437 278.916229,75.350250 
	C274.427765,72.749054 272.642944,68.446358 273.132233,63.509144 
	C273.661865,58.164631 276.475616,54.229561 281.829315,52.427460 
	C286.569092,50.832008 290.829315,51.978729 294.342346,55.132622 
	C297.927216,58.351040 299.104340,62.654327 297.907104,67.417992 
	C297.292816,69.862213 296.191559,72.094810 294.123901,74.195503 
M290.444305,72.081779 
	C293.496399,69.399483 295.376495,66.215019 294.170410,62.027145 
	C292.764557,57.145378 287.707733,54.281918 283.361328,55.726963 
	C278.599213,57.310219 275.922211,62.941902 277.561340,67.928612 
	C279.114624,72.654167 284.273346,74.574524 290.444305,72.081779 
z"/>
<path fill="currentColor" opacity="1.000000" stroke="none" 
	d="
M372.716095,356.249817 
	C380.979523,353.118805 387.282745,355.192322 390.344391,361.733826 
	C393.128693,367.682678 389.641663,376.818146 383.433075,380.245544 
	C381.368622,381.385162 380.339661,380.062225 379.179932,378.953674 
	C375.347107,375.289948 371.682709,371.440704 367.723938,367.921082 
	C364.604584,365.147705 364.649384,362.815826 367.837402,360.294708 
	C369.391724,359.065521 370.867828,357.737427 372.716095,356.249817 
M383.624176,359.739594 
	C382.070343,358.664551 380.358215,358.222626 378.466064,358.321869 
	C375.008087,358.503265 372.249786,360.238953 370.886963,363.155945 
	C369.631897,365.842285 372.807861,366.956177 374.176483,368.640381 
	C375.213043,369.915924 376.514252,370.976410 377.697845,372.132446 
	C382.142975,376.474030 385.626282,375.548676 387.359985,369.446320 
	C388.417603,365.723785 387.247711,362.607361 383.624176,359.739594 
z"/>
<path fill="currentColor" opacity="1.000000" stroke="none" 
	d="
M293.268555,427.320862 
	C290.712280,425.245667 288.489349,423.245300 286.229034,421.288116 
	C285.148102,420.352142 283.866913,419.961456 282.531860,420.649139 
	C281.004944,421.435577 281.348114,422.880188 281.563965,424.180420 
	C281.896149,426.181580 283.524048,429.238281 280.759857,429.660095 
	C277.743774,430.120331 278.272156,426.364471 277.817993,424.366943 
	C276.715973,419.519745 276.146698,414.553406 275.120239,409.686218 
	C274.600006,407.219574 275.122589,405.855225 277.711029,405.424194 
	C280.166290,405.015381 282.583740,404.197754 285.045990,404.058685 
	C288.213165,403.879822 290.952393,405.107971 292.527283,408.077942 
	C294.727936,412.227997 292.501221,415.381927 289.873077,418.300110 
	C291.178772,420.963654 293.573853,422.349457 295.301086,424.331268 
	C297.380219,426.716827 296.115143,427.471283 293.268555,427.320862 
M280.558960,408.805878 
	C278.467377,411.331329 278.962463,413.931183 281.116364,415.839813 
	C283.033600,417.538696 285.271179,415.988312 287.104126,415.008728 
	C288.754333,414.126862 290.147614,412.555420 289.250122,410.512695 
	C287.973999,407.608307 285.234863,408.101898 282.744995,408.276672 
	C282.250153,408.311401 281.761139,408.429047 280.558960,408.805878 
z"/>
<path fill="currentColor" opacity="1.000000" stroke="none" 
	d="
M251.462891,432.062866 
	C245.210098,421.253662 238.332199,426.191772 231.065735,432.069824 
	C230.999680,427.569489 232.892075,425.157013 234.128464,422.568909 
	C236.204575,418.222931 238.364655,413.914154 240.605591,409.650757 
	C242.088120,406.830231 244.603622,405.736603 246.106064,409.057373 
	C249.179276,415.850006 251.590393,422.948425 254.122543,429.975555 
	C254.821457,431.915161 253.840103,432.834747 251.462891,432.062866 
M243.954514,414.524719 
	C239.984970,415.636475 240.433334,419.081238 239.427353,422.413391 
	C242.147995,422.388092 244.380280,423.467560 246.433823,421.565094 
	C246.355927,419.114716 245.315781,417.061066 243.954514,414.524719 
z"/>
<path fill="currentColor" opacity="1.000000" stroke="none" 
	d="
M83.097977,204.610321 
	C76.488541,202.780807 70.246162,201.034653 64.035599,199.181824 
	C62.667831,198.773773 60.843578,198.291611 61.679634,196.185333 
	C62.378208,194.425369 63.867813,195.236023 65.131317,195.493011 
	C71.745590,196.838196 74.135330,194.889893 74.571701,188.071594 
	C74.694244,186.156876 73.801254,185.310272 72.258919,184.776993 
	C70.688309,184.233902 69.085991,183.781952 67.518753,183.229919 
	C66.471222,182.860962 65.828423,182.139038 66.215302,180.951859 
	C66.517128,180.025635 67.399979,179.608368 68.194214,179.836868 
	C75.054718,181.810455 81.895821,183.852509 88.726166,185.928574 
	C89.587982,186.190491 90.013985,186.964050 89.727715,187.909195 
	C89.447205,188.835327 88.686089,189.176422 87.802803,189.151520 
	C87.148323,189.133102 86.494263,188.965897 85.847450,188.829651 
	C78.652893,187.314041 78.749069,187.341095 76.600433,194.461441 
	C75.719780,197.379837 75.856186,199.267120 79.376236,199.797623 
	C80.831200,200.016907 82.331039,200.510391 83.602036,201.241516 
	C85.410645,202.281906 86.069435,203.613876 83.097977,204.610321 
z"/>
<path fill="currentColor" opacity="1.000000" stroke="none" 
	d="
M406.295593,327.561340 
	C408.918152,325.883148 410.172882,326.473114 409.294708,329.263367 
	C408.709320,331.123322 407.446533,332.779236 406.428497,334.491730 
	C404.970093,336.944946 406.595184,338.107513 408.322357,339.302795 
	C410.351624,340.707214 411.675415,339.934174 412.769623,338.040344 
	C413.849854,336.170624 414.965332,334.318085 416.146790,332.511261 
	C416.802216,331.508942 417.656250,330.573456 418.989136,331.543793 
	C419.990631,332.272827 419.824432,333.292603 419.285522,334.208191 
	C417.431549,337.357971 415.566071,340.502167 413.636688,343.606049 
	C412.316345,345.730103 410.575958,345.135742 408.889343,344.115875 
	C403.769867,341.020386 398.687988,337.862152 393.548706,334.800171 
	C391.307251,333.464752 391.195770,331.886353 392.504730,329.825806 
	C394.018860,327.442322 395.351746,324.942932 396.886353,322.573578 
	C397.643188,321.405029 398.358734,319.431183 400.200287,320.427185 
	C402.069733,321.438263 400.824738,323.042694 400.150543,324.311188 
	C399.449860,325.629517 398.646820,326.899139 397.814880,328.140747 
	C396.409454,330.238220 396.191071,331.958435 398.684479,333.552551 
	C401.419525,335.301208 402.564301,333.636749 403.740631,331.644928 
	C404.501007,330.357452 405.292236,329.088226 406.295593,327.561340 
z"/>
<path fill="currentColor" opacity="1.000000" stroke="none" 
	d="
M321.919312,391.696594 
	C323.792480,391.015594 325.673737,389.825928 326.456665,392.148560 
	C327.108215,394.081329 324.962891,394.363281 323.744873,395.052399 
	C323.173096,395.375916 322.448578,395.450287 321.913574,395.814331 
	C319.911041,397.176971 315.579315,396.689240 317.469208,401.226013 
	C319.256775,405.517212 321.921417,402.980774 324.447632,402.162628 
	C326.159332,401.608307 327.943054,399.821136 330.026245,402.234558 
	C328.289856,405.871582 323.874420,405.550140 321.399597,408.008911 
	C322.089569,413.859344 323.260315,414.505707 328.539886,412.509949 
	C330.598938,411.731598 333.522278,408.537140 334.882263,411.670593 
	C336.220642,414.754303 331.940430,414.843781 329.936096,415.720245 
	C321.146942,419.563507 321.110748,419.479889 317.418732,410.859741 
	C315.982117,407.505402 314.734741,404.052246 313.053375,400.825317 
	C311.294495,397.449463 312.273407,395.627625 315.641937,394.440643 
	C317.669403,393.726257 319.595947,392.725372 321.919312,391.696594 
z"/>
<path fill="currentColor" opacity="1.000000" stroke="none" 
	d="
M59.622505,245.497528 
	C54.185032,238.791611 54.383030,230.763748 59.860382,226.686279 
	C61.123684,225.745850 62.713757,224.187027 64.231697,225.714447 
	C66.157692,227.652435 63.820465,228.518173 62.676151,229.488266 
	C59.536766,232.149750 58.318863,235.440338 59.967232,239.252213 
	C61.657936,243.161987 64.885948,244.973175 69.198784,244.555527 
	C73.532349,244.135880 76.162743,241.576355 77.297050,237.547638 
	C78.236710,234.210251 76.389809,231.840927 73.999046,229.806137 
	C72.880531,228.854141 71.210640,227.912277 72.820015,226.256058 
	C74.189056,224.847137 75.660866,225.905121 76.784149,226.865250 
	C80.496025,230.037964 82.093414,234.071976 80.916565,238.883774 
	C79.724403,243.758163 76.896400,247.411514 71.717033,248.223495 
	C67.595230,248.869675 63.378788,248.820129 59.622505,245.497528 
z"/>
<path fill="currentColor" opacity="1.000000" stroke="none" 
	d="
M324.812286,72.764404 
	C320.394989,79.348900 321.088989,84.483559 326.461639,87.390823 
	C328.827942,88.671303 331.136566,88.872810 333.576874,87.511620 
	C334.935944,86.753540 336.842529,85.258919 337.688599,87.718468 
	C338.376526,89.718254 336.178864,90.390434 334.721344,91.065147 
	C329.866699,93.312492 325.515503,91.965393 321.819153,88.625702 
	C318.064728,85.233551 316.813416,80.926712 318.377319,75.929504 
	C320.031464,70.644012 323.413727,67.342926 328.999390,66.745285 
	C336.593201,65.932785 342.933624,71.137062 342.711212,77.835785 
	C342.681885,78.717781 342.337830,79.438545 340.685272,80.146042 
	C337.550507,73.900551 334.424011,66.222649 324.812286,72.764404 
z"/>
<path fill="currentColor" opacity="1.000000" stroke="none" 
	d="
M249.351196,64.661972 
	C249.624939,67.092567 249.961716,69.058754 250.131668,71.039261 
	C250.238983,72.289703 249.831863,73.406616 248.304245,73.482185 
	C247.112015,73.541168 246.447937,72.706772 246.221725,71.701630 
	C245.932205,70.415169 245.718918,69.069695 245.760864,67.758873 
	C245.859802,64.666779 244.703171,63.324337 241.392059,63.259533 
	C233.487534,63.104820 233.351700,63.085522 233.788773,71.027435 
	C233.862900,72.374146 234.194351,73.887611 232.456802,74.313133 
	C230.697510,74.744011 230.038666,73.393921 229.941956,71.989929 
	C229.497131,65.531311 229.112885,59.067623 228.806625,52.601032 
	C228.739197,51.177513 229.279205,49.933998 231.200409,50.200176 
	C232.878296,51.335152 232.248566,53.195229 232.461060,54.741173 
	C232.931274,58.162380 234.171967,59.983929 238.209381,59.795959 
	C245.003433,59.479656 244.990646,59.766869 244.841537,52.917908 
	C244.807648,51.361248 244.331329,49.437767 247.324127,48.995491 
	C250.144867,53.727184 249.026215,59.086178 249.351196,64.661972 
z"/>
<path fill="currentColor" opacity="1.000000" stroke="none" 
	d="
M356.908447,100.950844 
	C359.940369,97.163750 362.711548,93.623901 365.586487,90.170456 
	C366.493713,89.080658 367.591034,87.448120 369.257660,88.823807 
	C370.945984,90.217377 369.394470,91.516586 368.608307,92.682861 
	C367.782410,93.908058 366.808777,95.033691 365.782532,96.353531 
	C370.608093,98.449135 376.188049,93.786972 381.039398,98.347603 
	C377.837097,100.232231 374.880615,100.459152 371.936401,100.314156 
	C367.733154,100.107124 365.652374,101.577805 366.231842,106.110413 
	C366.687378,109.673744 366.777557,113.283791 367.055695,117.237770 
	C362.746307,116.694397 363.093231,113.542175 362.787415,110.975235 
	C362.456055,108.193840 362.967560,105.296883 361.430939,102.385773 
	C359.485260,103.194328 358.739197,105.128853 357.484558,106.509613 
	C356.487366,107.607056 355.577698,109.261467 353.887299,107.833473 
	C352.224976,106.429176 353.677856,105.157593 354.533051,103.984085 
	C355.218903,103.042938 355.967224,102.147324 356.908447,100.950844 
z"/>
<path fill="currentColor" opacity="1.000000" stroke="none" 
	d="
M427.995697,189.780029 
	C440.629883,186.672958 437.641388,186.014587 441.145660,196.979279 
	C441.448669,197.927322 441.647278,198.910370 441.863800,199.883957 
	C442.124298,201.055206 442.344910,202.327362 440.874725,202.810913 
	C439.335602,203.317139 438.837311,202.087296 438.482483,200.957611 
	C437.885834,199.058105 437.278748,197.151917 436.860291,195.208862 
	C436.312012,192.662796 434.830231,191.989197 432.470123,192.637314 
	C430.105042,193.286804 429.397400,194.518860 430.062805,197.072708 
	C430.696045,199.503159 432.944641,202.180481 430.059296,204.911575 
	C426.898590,203.482910 427.684814,200.275986 426.697083,198.021484 
	C425.800690,195.975449 425.138855,194.508850 422.426270,195.242767 
	C419.741760,195.969070 418.918518,197.527496 419.488739,200.035553 
	C419.930176,201.977158 420.524872,203.883484 420.992188,205.819778 
	C421.288574,207.047852 421.195435,208.279755 419.691772,208.563080 
	C418.486450,208.790176 417.960876,207.823807 417.688080,206.803741 
	C416.743958,203.273148 415.754333,199.752701 414.913025,196.197403 
	C414.427185,194.144348 415.649994,193.176926 417.512085,192.682755 
	C420.883850,191.787903 424.232422,190.805557 427.995697,189.780029 
z"/>
<path fill="currentColor" opacity="1.000000" stroke="none" 
	d="
M131.395508,96.022499 
	C131.881607,98.833801 133.649994,99.049927 135.599503,98.677498 
	C137.062164,98.398071 138.497055,97.928352 139.910263,97.443977 
	C143.441513,96.233650 146.600174,96.672180 148.735153,99.919060 
	C150.563034,102.698898 150.356140,105.716774 148.225235,108.279831 
	C145.741455,111.267319 142.583603,112.984276 138.550858,111.801544 
	C137.349792,111.449295 135.760406,110.968384 136.271210,109.143112 
	C136.684265,107.667168 137.972122,107.695541 139.137360,108.123260 
	C141.329681,108.928032 143.072205,108.145012 144.559998,106.648994 
	C145.854401,105.347427 146.235992,103.731071 145.216293,102.101440 
	C144.313370,100.658424 142.965820,100.316643 141.306000,100.871208 
	C139.100540,101.608063 136.888092,102.535080 134.611450,102.797668 
	C131.316284,103.177727 128.670822,101.743950 127.694389,98.392815 
	C126.478615,94.220337 128.420090,91.243484 131.970123,89.296249 
	C134.829254,87.727982 137.790939,86.831078 140.184250,90.616486 
	C137.746262,93.429459 132.149506,90.487450 131.395508,96.022499 
z"/>
<path fill="currentColor" opacity="1.000000" stroke="none" 
	d="
M199.519730,56.921223 
	C201.460007,57.886806 203.894211,58.494503 202.731857,60.845272 
	C201.613266,63.107540 199.892670,61.025505 198.436676,60.686844 
	C195.667358,60.042702 193.088104,60.567280 192.613510,63.637337 
	C192.131958,66.752548 194.934326,66.644386 197.075684,66.902756 
	C198.890900,67.121788 200.719452,67.308678 202.503616,67.689880 
	C205.854370,68.405777 207.907562,70.659653 207.877151,73.975327 
	C207.841232,77.887939 205.477173,80.350769 201.624588,81.340927 
	C198.133621,82.238144 195.016281,81.837158 192.569702,78.946297 
	C192.001495,78.274918 191.875732,77.424225 192.527161,76.682312 
	C193.136536,75.988281 193.935089,75.806961 194.776611,76.186020 
	C195.831604,76.661240 196.804977,77.458069 197.900681,77.674004 
	C200.371246,78.160904 202.828384,77.773102 203.496246,74.935387 
	C204.223053,71.847282 201.780914,71.474411 199.520493,71.204628 
	C198.034851,71.027313 196.551300,70.832359 195.067047,70.643494 
	C191.077148,70.135803 188.638214,68.220619 188.650452,63.862411 
	C188.662766,59.475616 191.538498,57.771996 195.147888,56.865925 
	C196.396484,56.552483 197.790115,56.816742 199.519730,56.921223 
z"/>
<path fill="currentColor" opacity="1.000000" stroke="none" 
	d="
M84.191177,289.710876 
	C83.508018,292.932098 83.186302,295.891632 82.563034,298.786224 
	C81.850449,302.095612 79.628311,304.149719 76.241455,304.110596 
	C72.474945,304.067078 70.016678,301.669067 69.062920,298.197449 
	C68.164047,294.925659 68.179428,291.552765 70.971359,288.922211 
	C71.604881,288.325317 72.430054,288.045929 73.233765,288.593262 
	C74.217751,289.263367 74.311943,290.261658 73.797440,291.231476 
	C72.414803,293.837677 71.228516,296.416321 73.926353,298.920990 
	C74.855148,299.783295 76.069519,300.134338 77.155006,299.482086 
	C80.113121,297.704742 79.648605,294.662994 79.663406,291.872986 
	C79.681023,288.553284 80.782623,285.909241 84.183899,284.954895 
	C87.389320,284.055542 90.193153,284.933960 91.952934,287.898499 
	C93.860062,291.111267 94.117119,294.499451 92.206093,297.834534 
	C91.563057,298.956726 90.445007,299.496338 89.241508,298.712616 
	C87.974434,297.887482 88.603096,296.777008 88.923843,295.613007 
	C90.451935,290.067322 89.254646,288.481140 84.191177,289.710876 
z"/>
<path fill="currentColor" opacity="1.000000" stroke="none" 
	d="
M425.682922,298.644440 
	C428.847565,298.112091 427.188446,296.996704 426.267517,296.213562 
	C422.718903,293.195862 419.081116,290.283020 415.531219,287.266785 
	C414.043762,286.002960 412.141663,284.730133 414.748779,281.722992 
	C421.242432,286.677094 427.625336,291.818115 433.462494,297.587006 
	C435.206390,299.310547 433.939636,301.573975 431.920074,301.711609 
	C423.908813,302.257660 415.911102,304.024384 407.592163,302.971924 
	C409.228912,299.477661 411.197754,299.050201 425.682922,298.644440 
z"/>
<path fill="currentColor" opacity="1.000000" stroke="none" 
	d="
M130.093094,370.933380 
	C128.207062,373.168884 127.073250,371.500702 125.852768,370.474182 
	C124.095291,368.996002 122.889877,366.880035 120.632072,365.879730 
	C118.188438,366.851868 116.917198,369.159149 114.987732,370.676331 
	C114.037842,371.423248 113.041870,372.215515 111.964653,371.013031 
	C110.966278,369.898590 111.543564,368.802979 112.417397,367.937317 
	C117.021774,363.376068 121.651680,358.840485 126.291138,354.314850 
	C127.541618,353.095032 128.944504,352.890625 130.246735,354.185364 
	C132.838135,356.761902 135.386688,359.382782 137.902542,362.033203 
	C138.630005,362.799591 138.979324,363.792603 138.051788,364.667328 
	C137.155487,365.512573 136.171356,365.165497 135.369492,364.488373 
	C134.357651,363.633972 133.400116,362.704987 132.492340,361.739319 
	C128.244125,357.220215 128.078323,357.225403 124.060631,362.465240 
	C125.208565,365.827454 129.295212,367.043335 130.093094,370.933380 
z"/>
<path fill="currentColor" opacity="1.000000" stroke="none" 
	d="
M445.877258,230.729401 
	C442.861603,233.303772 440.011993,235.563019 436.992065,237.957306 
	C438.946899,242.573914 446.153534,242.102631 447.361481,249.237274 
	C438.249176,245.740753 432.096222,237.312210 422.535278,240.431656 
	C421.840820,237.842102 422.725922,236.801178 423.954620,236.970810 
	C431.846436,238.060242 436.923431,232.880035 442.588837,228.925980 
	C444.338654,227.704712 446.478546,226.253265 445.877258,230.729401 
z"/>
<path fill="currentColor" opacity="1.000000" stroke="none" 
	d="
M154.019958,379.982269 
	C152.552811,378.910278 151.095291,378.172241 151.801758,376.249786 
	C156.151459,375.697113 167.120514,383.246735 167.686264,387.272614 
	C164.773956,388.588348 163.450333,385.091278 160.123337,385.033600 
	C157.439819,389.143188 154.511124,393.709564 151.486725,398.211670 
	C150.547424,399.609924 149.838226,402.327911 147.589417,400.982788 
	C144.939163,399.397583 147.337463,397.482269 148.267929,395.958313 
	C150.435516,392.408112 152.777054,388.963318 155.077225,385.495087 
	C156.425980,383.461365 157.088364,381.573578 154.019958,379.982269 
z"/>
<path fill="currentColor" opacity="1.000000" stroke="none" 
	d="
M388.034424,142.505814 
	C379.919006,132.462036 379.919983,132.463257 389.701874,124.621956 
	C392.300415,122.538940 394.873688,120.423904 397.493774,118.368439 
	C398.489716,117.587120 399.706207,117.239479 400.605560,118.377586 
	C401.558685,119.583694 400.692963,120.559059 399.749969,121.335876 
	C395.136871,125.135880 390.508698,128.917557 385.772308,132.798798 
	C386.662628,135.899353 389.287109,137.494904 390.572937,139.928528 
	C391.898926,142.438217 391.716858,144.015305 388.034424,142.505814 
z"/>
<path fill="currentColor" opacity="1.000000" stroke="none" 
	d="
M405.042419,170.802277 
	C400.172821,161.390533 400.173370,161.391602 409.378265,156.697372 
	C412.336761,155.188644 415.244629,153.568726 418.267761,152.203751 
	C419.767548,151.526566 421.780060,149.572311 423.044617,151.848251 
	C424.395355,154.279297 421.595184,154.721252 420.158447,155.503799 
	C415.785736,157.885361 411.331421,160.116821 406.918457,162.425003 
	C406.639221,162.571060 406.441589,162.873108 406.141937,163.164963 
	C405.481934,166.998352 410.335938,169.549255 408.923065,173.616135 
	C406.363281,174.473083 406.073547,172.402206 405.042419,170.802277 
z"/>
<path fill="currentColor" opacity="1.000000" stroke="none" 
	d="
M110.729797,123.284821 
	C108.740166,121.505997 107.006241,119.975197 105.310600,118.403091 
	C104.458702,117.613281 103.479378,116.731079 104.417969,115.463554 
	C105.298775,114.274071 106.545853,114.513359 107.473511,115.322365 
	C112.574600,119.771019 117.629662,124.273102 122.654816,128.807495 
	C123.403969,129.483475 123.855072,130.485580 123.023422,131.440002 
	C122.007889,132.605453 120.891953,132.097946 119.974022,131.318192 
	C116.953453,128.752304 113.987961,126.121590 110.729797,123.284821 
z"/>
</svg>